<?xml version="1.0" standalone="no"?>
<!DOCTYPE svg PUBLIC "-//W3C//DTD SVG 1.1//EN" "http://www.w3.org/Graphics/SVG/1.1/DTD/svg11.dtd">
<svg xmlns="http://www.w3.org/2000/svg">
<metadata>Copyright (C) 2017 by original authors @ fontello.com</metadata>
<defs>
<font id="yipp" horiz-adv-x="1000" >
<font-face font-family="yipp" font-weight="400" font-stretch="normal" units-per-em="1000" ascent="850" descent="-150" />
<missing-glyph horiz-adv-x="1000" />
<glyph glyph-name="yipp_apple_badge" unicode="&#xe800;" d="M595 465c-22-2-30-5-35-7-10-5-17-8-50-8-30 0-40 3-50 8-5 2-12 5-35 7-2 0-5 0-7 0-45 0-83-40-83-40-27-35-40-77-35-122 13-98 95-185 123-203 12-7 25-12 40-12 20 0 37 10 42 12 3 3 8 3 13 0 5-2 22-12 42-12 15 0 28 5 40 12 28 20 110 108 123 203 5 47-5 87-35 125-3 0-45 42-93 37z m75 133c-62 7-105 0-130-28-12-15-15-30-17-37 17-8 35-13 50-13 57 0 87 53 97 78z m330-308l-55 50-10 10 10 10 55 50-65 38-12 7 7 13 40 62-72 20-13 0 5 13 25 70-75 2-15 0 3 15 7 75-72-15-13-2-2 15-10 72-68-32-12-5-8 10-27 70-58-48-10-10-7 10h0l-48 60-45-60-7-10-10 10-58 48-30-70-5-13-12 5-68 33-10-73-2-15-13 3-75 17 8-75 2-12-15 0-75-3 25-70 5-15-12-2-73-20 40-63 8-12-13-8-65-35 55-50 10-10-10-10-55-50 65-37 13-8-8-12-40-63 73-20 12 0-5-12-25-70 75-3 15 0-2-15-8-75 73 15 12 2 3-15 10-72 67 32 13 5 5-12 27-70 58 47 10 10 7-12 50-55 45 60 8 12 10-10 57-47 28 70 5 12 12-5 68-32 10 72 2 15 13-2 72-15-7 75 2 8 15 0 75 2-25 70-5 15 13 3 72 20-40 62-7 13 12 7 65 35z m-257 10c-13-105-100-197-133-220-15-12-35-17-52-17-20 0-40 7-50 12-10-5-28-12-50-12-20 0-38 5-53 17-30 23-117 115-132 220-8 53 7 103 40 143 2 2 52 55 110 47 25-2 35-7 42-10 10-2 15-5 35-5 10 85-45 140-47 140-5 5-5 13 0 18 5 5 12 5 15 0 2-3 25-25 42-65 3 7 8 15 15 20 30 35 85 45 163 32 5 0 10-5 10-12 0-8-35-110-125-110-15 0-33 2-50 10 0-10 0-20 0-33 17 0 22 3 27 5 8 3 15 8 43 10 60 8 107-45 110-47 35-43 47-90 40-143z" horiz-adv-x="1000" />

<glyph glyph-name="yipp_apple_full" unicode="&#xe801;" d="M520 533c0 10 5 25 18 37 22 25 67 35 130 28-10-25-40-78-98-78-17 0-32 5-50 13z m-107-68c2 0 5 0 7 0 23-2 30-5 35-7 10-5 18-8 50-8 30 0 40 3 50 8 5 2 13 5 35 7 48 5 90-40 90-40 30-35 40-77 35-125-12-97-95-185-122-202-13-8-25-13-40-13-20 0-38 10-43 13-2 2-7 2-12 0-5-3-23-13-43-13-15 0-27 5-40 13-27 20-110 107-122 202-3 50 7 90 37 125 0 3 38 40 83 40z m87-615c-275 0-500 225-500 500s225 500 500 500 500-225 500-500-225-500-500-500z m18 658c17-8 35-10 50-10 90 0 125 102 125 110 0 5-5 10-10 12-78 13-133 3-163-32-5-8-10-15-15-20-15 40-40 65-42 65-5 5-13 5-15 0-5-5-5-13 0-18 0 0 57-55 47-140-20 0-25 3-30 5-7 3-15 8-42 10-60 8-108-45-110-47-33-40-48-90-40-143 12-105 100-197 132-220 15-12 35-17 53-17 20 0 40 7 50 12 10-5 27-12 50-12 20 0 37 5 52 17 30 23 118 115 133 220 7 55-8 103-40 143-3 2-53 52-110 47-25-2-35-7-43-10-5-2-10-5-27-5-3 10-3 23-5 33z" horiz-adv-x="1000" />

<glyph glyph-name="yipp_apple_line" unicode="&#xe802;" d="M500-150c-275 0-500 225-500 500s225 500 500 500 500-225 500-500c0-275-225-500-500-500z m0 953c-250 0-452-203-452-453s202-453 452-453c250 0 453 203 453 453 0 250-203 453-453 453z m198-360c-3 2-53 52-110 47-25-2-35-7-43-10-5-2-10-5-27-5 0 10 2 23 0 33 17-8 35-10 50-10 90 0 125 102 125 110 0 5-5 10-10 12-78 13-133 3-163-32-5-8-10-15-15-20-15 40-40 65-42 65-5 5-13 5-15 0-5-5-5-13 0-18 0 0 55-55 45-140-20 0-23 3-30 5-8 3-15 8-43 10-60 8-107-45-110-47-32-40-47-90-40-143 13-105 100-197 133-220 15-12 35-17 52-17 20 0 40 7 50 12 10-5 28-12 50-12 20 0 38 5 53 17 30 23 117 115 132 220 5 53-7 100-42 143z m-160 127c22 25 67 35 130 28-10-25-40-78-98-78-15 0-32 5-50 13 0 7 5 25 18 37z m177-267c-12-98-95-185-122-203-13-7-25-12-40-12-20 0-38 10-43 12-2 3-7 3-12 0-5-2-23-12-43-12-15 0-27 5-40 12-27 20-110 108-122 203-3 47 7 87 37 122 0 0 38 40 83 40 2 0 5 0 7 0 23-2 30-5 35-7 10-5 18-8 50-8 30 0 40 3 50 8 5 2 13 5 35 7 48 5 90-40 90-40 30-35 43-75 35-122z" horiz-adv-x="1000" />

<glyph glyph-name="yipp_camera_line" unicode="&#xe803;" d="M500 215c-52 0-97 43-97 98s42 97 97 97c53 0 98-42 98-97 0-55-45-98-98-98z m0 175c-42 0-77-35-77-77 0-43 35-78 77-78s78 35 78 78c0 42-35 77-78 77z m243 108l-98 0-27 52c-5 8-13 13-20 13l-198 0c-7 0-15-5-17-13l-28-52-97 0c-30 0-55-25-55-55l0-208c0-5 2-12 7-15 8-7 23-7 33 0 5 5 7 10 7 15l0 208c0 5 5 10 10 10l113 0c7 0 15 5 20 12l27 53 168 0 27-53c3-7 13-12 20-12l110 0c5 0 10-5 10-10l0-260c0-5-5-10-10-10l-482 0c-5 0-10 5-10 10 0 5-3 12-8 15-7 7-22 7-32 0-5-5-8-10-8-15 0-30 25-55 55-55l483 0c30 0 55 25 55 55l0 260c-3 30-25 55-55 55z m-243-648c-275 0-500 225-500 500s225 500 500 500 500-225 500-500-225-500-500-500z m0 925c-235 0-425-190-425-425s190-425 425-425 425 190 425 425c0 235-190 425-425 425z" horiz-adv-x="1000" />

<glyph glyph-name="yipp_challenge_line" unicode="&#xe804;" d="M238-143c-3 3-8 8-8 10-2 8-2 15 0 20l148 346-233 0c-10 0-20 5-27 12 0 0 0 0 0 3l-3 2c-5 10-2 23 8 30l597 563c8 7 23 10 33 7l10-5c2-2 7-7 7-10 3-7 3-15 0-20l-147-345 232 0c10 0 20-5 25-12 0 0 0 0 0-3l3-2c5-10 2-23-5-30l-598-566c-10-7-22-10-32-7l-10 7z m-20 433l205 0c7 0 17-2 22-7 8-8 10-20 8-30l-108-256 440 413-205 0c-7 0-17 3-22 8-8 7-10 20-8 30l108 255-440-413z" horiz-adv-x="1000" />

<glyph glyph-name="yipp_check_full" unicode="&#xe805;" d="M500 850c-275 0-500-225-500-500 0-275 225-500 500-500 275 0 500 225 500 500 0 275-225 500-500 500z m-10-662l-37-38-38 38-135 137 38 38 135-138 332 325 38-37-333-325z" horiz-adv-x="1000" />

<glyph glyph-name="yipp_check_line" unicode="&#xe806;" d="M435 120l-170 168c-15 12-15 37 0 52 15 15 38 15 53 0l117-115 285 275c15 15 38 15 53 0 15-15 15-37 0-52l-338-328z m65-270c-275 0-500 225-500 500s225 500 500 500 500-225 500-500-225-500-500-500z m0 925c-235 0-425-190-425-425s190-425 425-425 425 190 425 425c0 235-190 425-425 425z" horiz-adv-x="1000" />

<glyph glyph-name="yipp_emoticon_happy-" unicode="&#xe807;" d="M758 213l0 0c-13 7-28 5-35-8-8-12-85-117-223-117s-215 105-222 117c-18 28-60 0-43-27 10-15 100-138 263-138s252 125 262 138c10 12 8 27-2 35l0 0z m-328 275c0-78-120-78-120 0 3 77 120 77 120 0m258 0c0-78-120-78-120 0 2 77 120 77 120 0m-188-593c-252 0-455 203-455 455 0 253 203 455 455 455 253 0 455-205 455-455 0-252-202-455-455-455z m0 955c-275 0-500-225-500-500 0-275 225-500 500-500s500 225 500 500c0 275-225 500-500 500z" horiz-adv-x="1000" />

<glyph glyph-name="yipp_emoticon_neutral" unicode="&#xe808;" d="M430 488c0-78-117-78-117 0 0 77 117 77 117 0m258 0c0-78-118-78-118 0 0 77 118 77 118 0m-30-308h-330c-13 0-23-15-23-32s10-33 23-33h330c12 0 22 15 22 33s-10 32-22 32z m-158-285c-252 0-455 203-455 455s203 455 455 455c253 0 455-205 455-455s-202-455-455-455z m0 955c-275 0-500-225-500-500 0-275 225-500 500-500s500 225 500 500c0 275-225 500-500 500z" horiz-adv-x="1000" />

<glyph glyph-name="yipp_emoticon_sad" unicode="&#xe809;" d="M430 485c0-77-117-77-117 0 0 78 117 78 117 0m258 0c0-77-118-77-118 0 0 78 118 78 118 0m-443-382l0 0c10-8 28-5 35 7 8 13 83 115 220 115 138 0 213-102 220-115 18-27 60 0 40 28-10 15-100 137-262 137-163 0-253-122-263-137-5-13-2-28 10-35l0 0z m255-208c-252 0-455 203-455 455s203 455 455 455c253 0 455-205 455-455s-202-455-455-455z m0 955c-275 0-500-225-500-500 0-275 225-500 500-500s500 225 500 500c0 275-225 500-500 500z" horiz-adv-x="1000" />

<glyph glyph-name="yipp_home_full-" unicode="&#xe80a;" d="M35 510c-7-5-12-17-12-27l0-601c0-17 15-32 32-32l300 0c18 0 33 15 33 32l0 278 222 0 0-278c0-17 15-32 33-32l300 0c17 0 32 15 32 32l0 601c0 10-5 20-12 27l-443 333c-15 10-27 7-40 0l-445-333z" horiz-adv-x="1000" />

<glyph glyph-name="yipp_mobile_badge" unicode="&#xe80b;" d="M288 70c0-12 10-20 20-20h382c13 0 20 10 20 20v48h-422v-48z m212 28c8 0 13-5 13-13s-5-12-13-12-12 5-12 12 5 13 12 13z m500 192l-55 50-10 10 10 10 55 50-65 38-12 7 7 13 40 62-72 20-13 0 5 13 25 70-75 2-15 0 3 15 7 75-72-15-13-2-2 15-10 72-68-32-12-5-8 10-27 70-58-48-10-10-7 10h0l-48 60-45-60-7-10-10 10-58 48-30-70-5-13-12 5-68 33-10-73-2-15-13 3-75 17 8-75 2-12-15 0-75-3 25-70 5-15-12-2-73-20 40-63 8-12-13-8-65-35 55-50 10-10-10-10-55-50 65-37 13-8-8-12-40-63 73-20 12 0-5-12-25-70 75-3 15 0-2-15-8-75 73 15 12 2 3-15 10-72 67 32 13 5 5-12 27-70 58 47 10 10 7-12 50-55 45 60 8 12 10-10 57-47 28 70 5 12 12-5 68-32 10 72 2 15 13-2 72-15-7 75 2 8 15 0 75 2-25 70-5 15 13 3 72 20-40 62-7 13 12 7 65 35z m-275-220c0-20-15-35-35-35h-380c-20 0-35 15-35 35v545c0 20 15 35 35 35h383c17 0 32-15 32-35v-545z m-35 568h-380c-12 0-20-10-20-20v-20h423v17c0 13-10 23-23 23z" horiz-adv-x="1000" />

<glyph glyph-name="yipp_mobile_full" unicode="&#xe80c;" d="M500 98c-7 0-12-5-12-13 0-7 5-12 12-12s13 5 13 12c0 8-5 13-13 13z m-212 20h422v-48c0-12-10-20-20-20h-380c-12 0-20 10-20 20v48z m0 465h422v-450h-422v450z m22 55h383c12 0 20-10 20-20v-20h-425v17c0 13 10 23 22 23z m0 12c-20 0-35-15-35-35v-545c0-20 15-35 35-35h383c20 0 35 15 35 35v545c-3 20-18 35-38 35h-380z m190-800c-275 0-500 225-500 500s225 500 500 500 500-225 500-500-225-500-500-500z" horiz-adv-x="1000" />

<glyph glyph-name="yipp_mobile_line-" unicode="&#xe80d;" d="M500 98c-7 0-12-5-12-13 0-7 5-12 12-12s13 5 13 12c0 8-5 13-13 13z m-212 20h422v-48c0-12-10-20-20-20h-380c-12 0-20 10-20 20v48z m0 465h422v-450h-422v450z m22 55h383c12 0 20-10 20-20v-20h-425v17c0 13 10 23 22 23z m0 12c-20 0-35-15-35-35v-545c0-20 15-35 35-35h383c20 0 35 15 35 35v545c-3 20-18 35-38 35h-380z m190-800c-275 0-500 225-500 500s225 500 500 500 500-225 500-500c0-275-225-500-500-500z m0 953c-250 0-452-203-452-453s202-453 452-453c250 0 453 203 453 453 0 250-203 453-453 453z" horiz-adv-x="1000" />

<glyph glyph-name="yipp_notification_line" unicode="&#xe80e;" d="M955 63c-115 132-165 280-165 497 0 160-130 290-290 290s-290-130-290-290c0-217-50-367-165-497-10-10-10-25-5-38 5-12 18-20 33-20h252c8-88 83-155 175-155s168 67 175 155h253c12 0 27 8 32 20 8 13 5 28-5 38z m-352-58c-8-48-48-85-103-85s-95 37-102 85h205z m-103 775c120 0 218-97 218-220 0-202 42-355 137-485h-710c95 130 138 283 138 485 0 123 97 220 217 220z" horiz-adv-x="1000" />

<glyph glyph-name="yipp_notification_line2" unicode="&#xe80f;" d="M128 733l0 0c-13-13-13-33 0-45l67-68c13-12 33-12 45 0 13 13 13 33 0 45l-67 68c-13 12-33 12-45 0l0 0z m797 0l0 0c13-13 13-33 0-45l-67-68c-30-27-73 15-45 45l67 68c15 12 35 12 45 0z m-397 117l0 0c17 0 30-15 30-32l0-95c0-43-63-43-63 0l0 95c3 17 15 32 33 32z m-405-875l812 0c43 0 43-63 0-63l-812 0c-43 0-43 63 0 63z m687 63l0 250c0 155-125 282-280 282-155 0-282-125-282-282l0-250 562 0z m218-63l0-63c-3-35-28-60-63-62l-875 0c-32 2-60 30-62 62 0 33 0 23 0 63 0 35 27 63 62 63l93 0 0 250c0 190 155 345 342 345 190 0 343-155 343-345l0-250 92 0c38-3 65-30 68-63z" horiz-adv-x="1000" />

<glyph glyph-name="yipp_pencil_line" unicode="&#xe810;" d="M948 760l-58 55c-47 45-125 45-172 0l-520-502c-3-3-5-8-8-13l-77-260c-3-10 0-20 7-25 5-5 13-7 20-7 3 0 5 0 8 0l270 75c5 0 7 2 12 7l520 503c23 22 35 52 35 82-2 33-15 63-37 85z m-553-627l-215-60 63 207 415 405 155-150-418-402z m513 497l-58-57-155 150 58 55c27 25 70 25 95 0l57-55c13-13 20-30 20-48 3-17-2-32-17-45z" horiz-adv-x="1000" />

<glyph glyph-name="yipp_profile_line" unicode="&#xe811;" d="M500 850c-275 0-500-225-500-500 0-275 225-500 500-500 275 0 500 225 500 500 0 275-225 500-500 500m0-940c-112 0-215 42-292 113 0 0 2 2 2 2 60 103 170 165 290 165 118 0 230-62 290-165 0 0 3-2 3-2-78-71-180-113-293-113m-135 475c0 75 60 135 135 135 75 0 135-60 135-135 0-75-60-135-135-135-75 3-135 63-135 135m470-320c-50 80-127 138-215 168 45 35 78 90 78 155 0 107-88 195-195 195-108 0-195-88-195-195 0-63 30-118 77-155-87-28-165-88-215-168-70 78-110 178-110 285 0 243 198 440 440 440 243 0 440-197 440-440 0-107-40-207-105-285" horiz-adv-x="1000" />

<glyph glyph-name="yipp_sleep_badge" unicode="&#xe812;" d="M435 440c0 28 5 55 18 80-78-32-128-107-128-192 0-115 95-210 210-210 85 0 160 52 193 130-25-13-53-18-80-18-118 3-213 95-213 210z m565-150l-55 50-10 10 10 10 55 50-65 38-12 7 7 13 40 62-72 20-13 0 5 13 25 70-75 2-15 0 3 15 7 75-72-15-13-2-2 15-10 72-68-32-12-5-8 10-27 70-58-48-10-10-7 10h0l-48 60-45-60-7-10-10 10-58 48-30-70-5-13-12 5-68 33-10-73-2-15-13 3-75 17 8-75 2-12-15 0-75-3 25-70 5-15-12-2-73-20 40-63 8-12-13-8-65-35 55-50 10-10-10-10-55-50 65-37 13-8-8-12-40-63 73-20 12 0-5-12-25-70 75-3 15 0-2-15-8-75 73 15 12 2 3-15 10-72 67 32 13 5 5-12 27-70 58 47 10 10 7-12 50-55 45 60 8 12 10-10 57-47 28 70 5 12 12-5 68-32 10 72 2 15 13-2 72-15-7 75 2 8 15 0 75 2-25 70-5 15 13 3 72 20-40 62-7 13 12 7 65 35z m-465-190c-127 0-230 103-230 230 0 100 68 193 168 220 5 0 7 0 10-2 2-3 2-8 0-13-18-30-25-62-25-95 0-105 85-190 190-190 32 0 65 8 95 25 2 3 7 3 12 0 3-2 5-7 3-10-33-97-123-165-223-165z" horiz-adv-x="1000" />

<glyph glyph-name="yipp_sleep_full" unicode="&#xe813;" d="M530 120c-115 0-210 95-210 210 0 85 53 160 128 193-13-25-18-53-18-80 0-115 95-210 210-210 28 0 55 5 80 17-30-77-105-130-190-130z m205 158c-30-18-62-25-95-25-105 0-190 85-190 190 0 32 8 65 25 95 3 2 3 7 0 12 0 0-5 0-7 0-98-27-168-117-168-220 0-127 103-230 230-230 100 0 193 68 220 168 0 5 0 7-2 10-5 2-10 2-13 0z m-235-428c-275 0-500 225-500 500s225 500 500 500 500-225 500-500-225-500-500-500z" horiz-adv-x="1000" />

<glyph glyph-name="yipp_sleep_line" unicode="&#xe814;" d="M530 113c-115 0-210 95-210 210 0 85 53 160 128 192-13-25-18-52-18-80 0-115 95-210 210-210 28 0 55 5 80 18-30-80-107-130-190-130z m205 157c-30-17-62-25-95-25-105 0-190 85-190 190 0 33 8 65 25 95 3 3 3 8 0 13-2 2-7 5-10 2-97-27-167-117-167-220 0-127 102-230 230-230 100 0 192 68 220 168 0 5 0 7-3 10-2-3-7-3-10-3z m-235-420c-275 0-500 225-500 500s225 500 500 500 500-225 500-500c0-275-225-500-500-500z m0 953c-250 0-452-203-452-453s202-453 452-453c250 0 453 203 453 453 0 250-203 453-453 453z" horiz-adv-x="1000" />

<glyph glyph-name="yipp_water_badge" unicode="&#xe815;" d="M355 273c0-13 0-23 3-35 0 0 0-3 0-5 15-70 75-120 142-120 80 0 148 70 148 160 0 85-70 202-148 290-77-88-145-205-145-290z m645 17l-55 50-10 10 10 10 55 50-65 38-12 7 7 13 40 62-72 20-13 0 5 13 25 70-75 2-15 0 3 15 7 75-72-15-13-2-2 15-10 72-68-32-12-5-8 10-27 70-58-48-10-10-7 10h0l-48 60-45-60-7-10-10 10-58 48-30-70-5-13-12 5-68 33-10-73-2-15-13 3-75 17 8-75 2-12-15 0-75-3 25-70 5-15-12-2-73-20 40-63 8-12-13-8-65-35 55-50 10-10-10-10-55-50 65-37 13-8-8-12-40-63 73-20 12 0-5-12-25-70 75-3 15 0-2-15-8-75 73 15 12 2 3-15 10-72 67 32 13 5 5-12 27-70 58 47 10 10 7-12 50-55 45 60 8 12 10-10 57-47 28 70 5 12 12-5 68-32 10 72 2 15 13-2 72-15-7 75 2 8 15 0 75 2-25 70-5 15 13 3 72 20-40 62-7 13 12 7 65 35z m-495-202c-82 0-150 60-170 142 0 3 0 3 0 5-2 13-5 28-5 43 0 100 83 232 175 335 93-103 175-235 175-335 0-105-80-190-175-190z" horiz-adv-x="1000" />

<glyph glyph-name="yipp_water_full" unicode="&#xe816;" d="M500 600c93-102 175-235 175-335 0-105-80-190-175-190-82 0-150 60-170 143 0 2 0 2 0 5-2 15-5 27-5 42 0 100 83 233 175 335z m0-750c275 0 500 225 500 500s-225 500-500 500c-275 0-500-225-500-500s225-500 500-500z m0 700c78-87 148-205 148-290 0-90-68-160-148-160-70 0-127 50-142 120 0 3 0 3 0 5-3 10-3 23-3 35-2 85 68 203 145 290z" horiz-adv-x="1000" />

<glyph glyph-name="yipp_water_line" unicode="&#xe817;" d="M500 63c-87 0-162 62-182 152l0 5c-3 15-5 28-5 45 0 90 67 220 177 343l10 10 10-10c113-125 178-253 178-343 0-112-85-202-188-202z m0 517c-102-117-162-235-162-317 0-13 2-28 5-40 0 0 0-3 0-8 17-77 82-132 157-132 90 0 163 80 163 177 0 88-60 205-163 320z m0-730c-275 0-500 225-500 500s225 500 500 500 500-225 500-500c0-275-225-500-500-500z m0 953c-250 0-452-203-452-453s202-453 452-453c250 0 453 203 453 453 0 250-203 453-453 453z" horiz-adv-x="1000" />

<glyph glyph-name="yipp_add_line" unicode="&#xe818;" d="M500-148a500 500 0 1 0 500 498 500 500 0 0 0-500-498z m0 961a462 462 0 1 1 463-463 463 463 0 0 1-463 463z m223-499h-430a19 19 0 1 0 0 37h430a19 19 0 0 0 0-37z m-223-203a19 19 0 0 0-18 18v407a19 19 0 1 0 37 0v-407a19 19 0 0 0-19-18z" horiz-adv-x="1000" />

<glyph glyph-name="yipp_delete_line" unicode="&#xe81a;" d="M908 637h-200v105a104 104 0 0 1-104 103h-268a104 104 0 0 1-104-103v-105h-200a32 32 0 0 1 0-64h90v-612a104 104 0 0 1 103-103h489a104 104 0 0 1 104 103v612h90a32 32 0 0 1 0 64z m-611 105a39 39 0 0 0 39 39h268a39 39 0 0 0 39-39v-105h-346z m246-170v-650h-146v650z m-356-611v612h146v-651h-108a39 39 0 0 0-38 39z m567 0a39 39 0 0 0-40-39h-107v650h147z" horiz-adv-x="940" />

<glyph glyph-name="yipp_goal_line" unicode="&#xe81d;" d="M983 363h-103a379 379 0 0 1-367 367v103a12 12 0 1 1-23 0v-103a379 379 0 0 1-367-367h-106a12 12 0 0 1 3-23h103a379 379 0 0 1 367-367v-104a12 12 0 1 1 23 0v104a379 379 0 0 1 367 367h104a12 12 0 1 1 0 23z m-160-23h34a356 356 0 0 0-344-344v34a12 12 0 1 1-23 0v-34a356 356 0 0 0-344 344h34a12 12 0 1 1 0 23h-34a356 356 0 0 0 337 344h7v-34a12 12 0 1 1 23 0v34a356 356 0 0 0 344-344h-36a12 12 0 0 1 2-23z" horiz-adv-x="1000" />

<glyph glyph-name="yipp_heart_full" unicode="&#xe81e;" d="M285 850c-171 0-285-139-285-295 0-146 83-272 184-371a1300 1300 0 0 1 305-216 23 23 0 0 1 21 0 1300 1300 0 0 1 305 216c100 100 184 225 184 371 1 156-113 295-283 295-101 0-166-50-216-120-50 70-115 120-215 120z" horiz-adv-x="1000" />

<glyph glyph-name="yipp_heart_line" unicode="&#xe81f;" d="M284 846c-170 0-284-140-284-296 0-146 83-272 184-372a1302 1302 0 0 1 306-216 23 23 0 0 1 20 0 1302 1302 0 0 1 306 216c101 100 184 225 184 372 0 156-114 296-284 296-100 0-166-51-216-121-50 70-115 121-216 121z m0-46c97 0 150-48 197-125a23 23 0 0 1 39 0c45 77 100 125 196 125 146 0 239-116 239-250 0-128-75-244-171-339a1250 1250 0 0 0-284-202 1250 1250 0 0 0-284 202c-96 95-170 211-170 339 0 135 92 250 238 250z" horiz-adv-x="1000" />

<glyph glyph-name="yipp_home_line" unicode="&#xe820;" d="M455 840l-442-331a34 34 0 0 1-13-26v-597a35 35 0 0 1 33-33h298a35 35 0 0 1 33 33v275h221v-275a35 35 0 0 1 33-33h299a35 35 0 0 1 33 33v597a34 34 0 0 1-13 26l-442 331a34 34 0 0 1-40 0z m20-68l408-306v-547h-231v275a35 35 0 0 1-33 33h-288a35 35 0 0 1-33-33v-275h-232v547z" horiz-adv-x="949" />

<glyph glyph-name="yipp_locked_line" unicode="&#xe821;" d="M431 323a122 122 0 0 1-121-123 120 120 0 0 1 57-100v-93a19 19 0 0 1 18-19h92a19 19 0 0 1 19 19v93a120 120 0 0 1 57 100 122 122 0 0 1-122 123z m-37-198a84 84 0 0 0-47 75 85 85 0 1 0 169 0 84 84 0 0 0-47-75 18 18 0 0 1-11-17v-83h-54v84a18 18 0 0 1-10 16z m404 335h-96v119a271 271 0 0 1-541 0v-119h-97a65 65 0 0 1-64-64v-482a65 65 0 0 1 64-64h734a65 65 0 0 1 64 64v482a65 65 0 0 1-64 64z m-600 0v119a234 234 0 1 0 468 0v-119z m627-64v-482a27 27 0 0 0-27-27h-734a27 27 0 0 0-27 27v482a27 27 0 0 0 27 27h734a27 27 0 0 0 27-27z" horiz-adv-x="863" />

<glyph glyph-name="yipp_repeat_line" unicode="&#xe822;" d="M928 346v3a23 23 0 0 1-9 18 27 27 0 0 1-20 5l-25-2a27 27 0 0 1-24-25 13 13 0 0 1 0-3c0-7 0-14 0-21s0-14 0-22a367 367 0 0 0-196-324 392 392 0 0 0-292-34 379 379 0 0 0-232 177 357 357 0 0 0-50 181 373 373 0 0 0 198 326 400 400 0 0 0 197 47l-44-36a25 25 0 0 1-2-38l17-19a25 25 0 0 1 19-10 25 25 0 0 1 18 7l128 103a23 23 0 0 1 11 21 21 21 0 0 1-7 16l-108 125a27 27 0 0 1-19 9 25 25 0 0 1-18-7l-22-15a29 29 0 0 1-8-17 22 22 0 0 1 6-21l36-40a484 484 0 0 1-242-57 450 450 0 0 1-240-393 453 453 0 0 1 59-220 465 465 0 0 1 281-213 466 466 0 0 1 352 40 444 444 0 0 1 240 393 356 356 0 0 1-4 46z" horiz-adv-x="932" />

<glyph glyph-name="yipp_summary_line" unicode="&#xe823;" d="M10 848h0a13 13 0 0 1-10-12v-847a13 13 0 0 1 13-13h473a13 13 0 1 1 0 25h-461v822h648v-610a13 13 0 1 1 25 0v623a13 13 0 0 1-13 12h-675z m112-211h0a13 13 0 0 1 3-25h448a13 13 0 1 1 0 25h-450z m0-212h0a13 13 0 0 1 3-25h448a13 13 0 1 1 0 25h-450z m0-212h0a13 13 0 0 1 3-25h448a13 13 0 1 1 0 25h-450z m587-63h0a12 12 0 0 1-8-3l-150-137a13 13 0 0 1 0-19l150-137a13 13 0 0 1 17 18l-125 116h291a13 13 0 1 1 0 25h-291l125 115a13 13 0 0 1-10 22z" horiz-adv-x="897" />

<glyph glyph-name="yipp_supermom_full" unicode="&#xe824;" d="M642 692l-4 3c-8 6-25-5-38-24l-120-176a71 71 0 0 1-17 7l-9 3c3 7 5 14 8 21a107 107 0 0 1 64 151 67 67 0 0 1 43 16c42 35 65 119-50 97a354 354 0 0 0-60-7v0l-35 63-50-31-8-31a185 185 0 0 1-97-40c-135-97-34-169 0-213 24-31 22-79-7-87-64-19-95 49-55 51s49-16 49-16-22 71-75 52c-61-23-55-74-45-99 11-29 84-62 123-62h0l-259-252s113-259 320-124l1 0a14 14 0 0 1 6 0l-24-94c-7-24-4-46 6-49l6-1c10-3 23 15 30 39l64 245h0a47 47 0 0 1 29 31l54 204a53 53 0 0 1 17 93l0 2 124 184c13 19 17 39 10 44z m-619-580l251 258a213 213 0 0 1 59 11l-117-171c-13-19-17-38-9-44l4-3c8-5 25 6 38 25l78 114-26-101a51 51 0 0 1 25-55l-19-93-100 68a23 23 0 0 1-33-1l-3-5a23 23 0 0 1 11-30l121-81 2-1a16 16 0 0 1 7-7c-178-100-289 116-289 116z m397 54l-64 65 11 26 69-15z m-37 618l5 22 40 24 31-47c-29-1-53 1-76 1z" horiz-adv-x="646" />

<glyph glyph-name="yipp_logo_heart" unicode="&#xe826;" d="M688 375c5 10 24 17 24 33l0 0a13 13 0 0 1-24 3 13 13 0 0 1-25-3l0 0c1-16 19-23 25-33z m0-156c5 10 24 17 24 32l0 0a13 13 0 0 1-24 4 13 13 0 0 1-25-4l0 0c1-15 19-22 25-32z m0 103c5 10 24 17 24 33l0 0a13 13 0 0 1-24 3 13 13 0 0 1-25-3l0 0c1-15 19-22 25-33z m0-51c5 10 24 17 24 32l0 0a13 13 0 0 1-24 4 13 13 0 0 1-25-4l0 0c1-15 19-22 25-32z m0 156c5 10 24 17 24 32l0 0a13 13 0 0 1-24 4 13 13 0 0 1-25-4l0 0c1-15 19-22 25-32z m0 209c5 10 24 17 24 32l0 0a13 13 0 0 1-24 4 13 13 0 0 1-25-4l0 0c1-15 19-22 25-32z m0-105c5 10 24 18 24 33l0 0a13 13 0 0 1-24 4 13 13 0 0 1-25-4l0 0c1-15 19-23 25-33z m0-52c5 10 24 17 24 33l0 0a13 13 0 0 1-24 3 13 13 0 0 1-25-3l0 0c1-16 19-23 25-33z m0 105c5 10 24 17 24 32l0 0a13 13 0 0 1-24 4 13 13 0 0 1-25-4l0 0c1-16 19-22 25-32z m57 104c5 10 24 17 24 32 0 0 0 0 0 0a13 13 0 0 1-12 11 13 13 0 0 1-12-7 13 13 0 0 1-24-4s0 0 0 0c1-15 19-22 24-32z m0 51c5 10 24 17 24 32 0 0 0 0 0 0a13 13 0 0 1-12 12 13 13 0 0 1-12-8 13 13 0 0 1-24-4s0 0 0 0c1-14 19-21 24-32z m-57-573c5 10 24 18 24 33l0 0a13 13 0 0 1-24 4 13 13 0 0 1-25-4l0 0c1-16 19-23 25-33z m46-111a13 13 0 0 1-12-11s0 0 0 0a19 19 0 0 1 4-10l19 17a12 12 0 0 1-11 4z m-46 59c5 10 24 17 24 33l0 0a13 13 0 0 1-24 3 13 13 0 0 1-25-3l0 0c1-16 19-23 25-33z m0-52c5 10 24 17 24 33l0 0a13 13 0 0 1-24 3 13 13 0 0 1-25-3l0 0c1-16 19-23 25-33z m0-52c5 10 24 17 24 33l0 0a13 13 0 0 1-24 3 13 13 0 0 1-25-3l0 0c1-16 19-23 25-33z m-58-52c6 10 24 17 24 32l0 0a13 13 0 0 1-24 4 13 13 0 0 1-11 7 13 13 0 0 1-13-11l0 0c0-15 19-22 24-32z m0 261c6 10 24 17 24 32l0 0a13 13 0 0 1-24 4 13 13 0 0 1-11 7 13 13 0 0 1-13-11l0 0c0-15 19-22 24-32z m0 103c6 10 24 17 24 33l0 0a13 13 0 0 1-24 3 13 13 0 0 1-11 8 13 13 0 0 1-13-11l0 0c0-15 19-22 24-33z m115 314c5 10 24 17 24 32 0 0 0 0 0 0a13 13 0 0 1-12 11 13 13 0 0 1-12-7 13 13 0 0 1-24-4s0 0 0 0c1-15 19-22 24-32z m-115-365c6 10 24 17 24 32l0 0a13 13 0 0 1-24 4 13 13 0 0 1-24-4l0 0c0-15 19-22 24-32z m0 208c6 10 24 17 24 33l0 0a13 13 0 0 1-24 3 13 13 0 0 1-24-3l0 0c0-16 19-23 24-33z m0-104c6 10 24 17 24 33l0 0a13 13 0 0 1-24 3 13 13 0 0 1-11 8 13 13 0 0 1-13-11l0 0c0-16 19-23 24-33z m58 364c5 10 24 17 24 32l0 0a13 13 0 0 1-24 4 13 13 0 0 1-25-4l0 0c1-14 19-21 25-32z m-58-312c6 10 24 17 24 32l0 0a13 13 0 0 1-24 4 13 13 0 0 1-11 8 13 13 0 0 1-13-12l0 0c0-15 19-22 24-32z m46-424a13 13 0 0 1-12-11l0 0a19 19 0 0 1 3-11l19 18a12 12 0 0 1-10 4z m-46 528c6 10 24 18 24 33l0 0a13 13 0 0 1-24 4 13 13 0 0 1-24-4l0 0c0-15 19-23 24-33z m0-365c6 10 24 18 24 33l0 0a13 13 0 0 1-24 4 13 13 0 0 1-11 7 13 13 0 0 1-13-11l0 0c0-16 19-23 24-33z m58 522c5 10 24 17 24 32l0 0a13 13 0 0 1-24 4 13 13 0 0 1-25-4l0 0c1-15 19-22 25-32z m-58-574c6 10 24 17 24 33l0 0a13 13 0 0 1-24 3 13 13 0 0 1-11 8 13 13 0 0 1-13-11l0 0c0-16 19-23 24-33z m0-104c6 10 24 17 24 33l0 0a13 13 0 0 1-24 3 13 13 0 0 1-24-3l0 0c0-16 19-23 24-33z m0 52c6 10 24 17 24 33l0 0a13 13 0 0 1-24 3 13 13 0 0 1-24-3l0 0c0-16 19-23 24-33z m115 104c5 10 24 18 24 33 0 0 0 0 0 0a13 13 0 0 1-12 11 13 13 0 0 1-12-7 13 13 0 0 1-24-4s0 0 0 0c1-16 19-23 24-33z m58 105c5 10 24 17 24 32 0 0 0 0 0 0a13 13 0 0 1-24 4 13 13 0 0 1-25-4l0 0c0-15 19-22 25-32z m0-105c5 10 24 18 24 33 0 0 0 0 0 0a13 13 0 0 1-13 11 13 13 0 0 1-11-7 13 13 0 0 1-25-4l0 0c0-16 19-23 25-33z m0 53c5 10 24 17 24 32 0 0 0 0 0 0a13 13 0 0 1-13 11 13 13 0 0 1-11-7 13 13 0 0 1-25-4l0 0c0-15 19-22 25-32z m0-105c5 10 24 17 24 33 0 0 0 0 0 0a13 13 0 0 1-24 3 13 13 0 0 1-25-3l0 0c0-16 19-23 25-33z m0 208c5 10 24 17 24 33 0 0 0 0 0 0a13 13 0 0 1-24 3 13 13 0 0 1-25-3l0 0c0-15 19-22 25-33z m0-222l7 6a13 13 0 0 1-7-6z m0 327c5 10 24 17 24 32 0 0 0 0 0 0a13 13 0 0 1-13 12 13 13 0 0 1-11-8 13 13 0 0 1-25-2l0 0c0-17 19-24 25-34z m0-52c5 10 24 17 24 33 0 0 0 0 0 0a13 13 0 0 1-13 11 13 13 0 0 1-11-8 13 13 0 0 1-25-3l0 0c0-16 19-23 25-33z m58 313c5 10 24 17 24 32l0 0a13 13 0 0 1-12 11 13 13 0 0 1-12-6 13 13 0 0 1-24-4l0 0c-1-16 18-23 24-33z m0-52c5 10 24 17 24 32l0 0a13 13 0 0 1-24 5 13 13 0 0 1-24-4l0 0c-1-16 18-23 24-33z m0-105c5 10 24 18 24 33l0 0a13 13 0 0 1-12 11 13 13 0 0 1-12-7 13 13 0 0 1-24-4l0 0c-1-15 18-23 24-33z m0 53c5 10 24 17 24 32l0 0a13 13 0 0 1-24 5 13 13 0 0 1-24-4l0 0c-1-17 18-23 24-33z m0-433a13 13 0 0 1-12 8 13 13 0 0 1-12-11l0 0a20 20 0 0 1 5-13l28 25a13 13 0 0 1-9-9z m0 588c5 10 24 17 24 32l0 0a13 13 0 0 1-12 12 13 13 0 0 1-12-8 13 13 0 0 1-24-4l0 0c-1-14 18-21 24-32z m-58-260c5 10 24 17 24 33 0 0 0 0 0 0a13 13 0 0 1-13 11 13 13 0 0 1-11-8 13 13 0 0 1-25-3l0 0c0-16 19-23 25-33z m-58 52c5 10 24 18 24 33 0 0 0 0 0 0a13 13 0 0 1-12 11 13 13 0 0 1-12-7 13 13 0 0 1-24-4s0 0 0 0c1-15 19-23 24-33z m0-209c5 10 24 17 24 33 0 0 0 0 0 0a13 13 0 0 1-24 3 13 13 0 0 1-24-3s0 0 0 0c1-15 19-22 24-33z m0-51c5 10 24 17 24 32 0 0 0 0 0 0a13 13 0 0 1-24 4 13 13 0 0 1-24-4s0 0 0 0c1-15 19-22 24-32z m116 208c5 10 24 17 24 33l0 0a13 13 0 0 1-12 11 13 13 0 0 1-12-6 13 13 0 0 1-24-4l0 0c-1-17 18-24 24-34z m-116-104c5 10 24 17 24 33 0 0 0 0 0 0a13 13 0 0 1-12 11 13 13 0 0 1-12-8 13 13 0 0 1-24-3s0 0 0 0c1-16 19-23 24-33z m0 209c5 10 24 17 24 32 0 0 0 0 0 0a13 13 0 0 1-12 11 13 13 0 0 1-12-7 13 13 0 0 1-24-4s0 0 0 0c1-16 19-22 24-32z m-115 0c6 10 24 17 24 32l0 0a13 13 0 0 1-24 4 13 13 0 0 1-11 8 13 13 0 0 1-13-11l0 0c0-17 19-23 24-33z m115-105c5 10 24 17 24 33 0 0 0 0 0 0a13 13 0 0 1-12 11 13 13 0 0 1-12-8 13 13 0 0 1-24-3s0 0 0 0c1-16 19-23 24-33z m0-52c5 10 24 17 24 32 0 0 0 0 0 0a13 13 0 0 1-12 12 13 13 0 0 1-12-8 13 13 0 0 1-23-2s0 0 0 0c0-17 18-24 23-34z m0-313c5 10 24 17 24 33 0 0 0 0 0 0a13 13 0 0 1-24 3 13 13 0 0 1-24-3s0 0 0 0c1-16 19-23 24-33z m58 417c5 10 24 18 24 33 0 0 0 0 0 0a13 13 0 0 1-13 11 13 13 0 0 1-11-7 13 13 0 0 1-25-4l0 0c0-15 19-23 25-33z m0 53c5 10 24 17 24 32 0 0 0 0 0 0a13 13 0 0 1-13 11 13 13 0 0 1-11-7 13 13 0 0 1-25-4l0 0c0-16 19-22 25-32z m0 155c5 10 24 17 24 32 0 0 0 0 0 0a13 13 0 0 1-13 12 13 13 0 0 1-11-8 13 13 0 0 1-25-4l0 0c0-14 19-21 25-32z m0-103c5 10 24 17 24 32 0 0 0 0 0 0a13 13 0 0 1-13 11 13 13 0 0 1-11-7 13 13 0 0 1-25-4l0 0c0-15 19-22 25-32z m-58-574c5 10 24 17 24 33 0 0 0 0 0 0a13 13 0 0 1-24 3 13 13 0 0 1-24-3s0 0 0 0c1-16 19-23 24-33z m46 45a13 13 0 0 1-13-11l0 0a20 20 0 0 1 5-12l19 17a13 13 0 0 1-11 6z m12 581c5 10 24 17 24 32 0 0 0 0 0 0a13 13 0 0 1-13 11 13 13 0 0 1-11-7 13 13 0 0 1-25-4l0 0c0-15 19-22 25-32z m-58-469c5 10 24 17 24 32 0 0 0 0 0 0a13 13 0 0 1-12 11 13 13 0 0 1-12-7 13 13 0 0 1-24-4s0 0 0 0c1-15 19-22 24-32z m197 555a13 13 0 0 1-25 3 13 13 0 0 1-24-3l0 0c0-15 18-23 24-33 5 10 24 17 24 33 1-1 1-1 1 0z m-25 18a70 70 0 0 0 14 14 291 291 0 0 1-37 16c2-13 19-21 23-30z m25-71a13 13 0 0 1-25 4 13 13 0 0 1-24-4l0 0c0-15 18-22 24-32 5 10 24 17 24 32 1 0 1 0 1 0z m-25-502c5 10 24 17 24 32 0 0 0 0 0 0a13 13 0 0 1-24 4 13 13 0 0 1-12 7 13 13 0 0 1-12-11l0 0c0-15 19-22 24-32z m-287 469c6 10 24 17 24 32l0 0a13 13 0 0 1-24 4 13 13 0 0 1-24-4l0 0c0-15 19-22 24-32z m312-123a13 13 0 0 1-24 4 13 13 0 0 1-25-4l0 0c0-15 19-22 25-32 5 10 24 17 24 32 0-1 0 0 0 0z m0 52a13 13 0 0 1-25 4 13 13 0 0 1-11 7 13 13 0 0 1-13-11l0 0c0-16 19-23 25-33 5 10 24 17 24 33 0-1 0 0 0 0z m0-104a13 13 0 0 1-25 4 13 13 0 0 1-24-4l0 0c0-15 18-22 24-32 5 10 24 17 24 32 1-1 1 0 1 0z m114-104a13 13 0 0 1-13 11 13 13 0 0 1-12-8 13 13 0 0 1-24-3l0 0c0-16 19-23 24-33 4 6 12 12 18 18s5 10 7 15z m-56-105a13 13 0 0 1-24 4 13 13 0 0 1-24-4s0 0 0 0c0-14 18-21 23-31 9 10 17 21 25 32z m-37-41a13 13 0 0 1-12-11s0 0 0 0a18 18 0 0 1 0-6l15 18a11 11 0 0 1-3-1z m70 97a13 13 0 0 1-25-4l0 0a28 28 0 0 1 12-19c6 9 12 19 17 29a12 12 0 0 1-4-6z m-33 101a13 13 0 0 1-24 4 13 13 0 0 1-24-4s0 0 0 0c0-15 18-22 24-32 5 10 24 17 24 32l0 0z m-13-93a13 13 0 0 1-12-8 13 13 0 0 1-24-4s0 0 0 0c0-15 18-22 24-32 5 10 24 17 24 32l0 0a13 13 0 0 1-12 12z m13 197a13 13 0 0 1-24 4 13 13 0 0 1-24-4s0 0 0 0c0-15 18-22 24-32 5 10 24 17 24 32l0 0z m0-52a13 13 0 0 1-25 4 13 13 0 0 1-24-4s0 0 0 0c0-15 18-22 24-32 5 10 24 17 24 32a11 11 0 0 1 1 0z m0-104a13 13 0 0 1-24 3 13 13 0 0 1-24-3s0 0 0 0c0-16 18-23 24-33 5 10 24 17 24 33l0 0z m-37 376a13 13 0 0 1-12-11s0 0 0 0c0-15 18-23 24-33 4 8 15 13 21 22q-10 9-20 16l0 0a12 12 0 0 1-4 2l-3 2a12 12 0 0 1-6 2z m9-4l3-2z m-30-425a13 13 0 0 1-24 4 13 13 0 0 1-12 8 13 13 0 0 1-13-11l0 0c0-15 19-23 25-33 5 10 24 17 24 33 0-1 0-1 0-1z m-13-40a13 13 0 0 1-11-8 13 13 0 0 1-25-4l0 0c0-15 19-22 25-32 5 10 24 17 24 32 0 0 0 0 0 0a13 13 0 0 1-13 12z m13 93a13 13 0 0 1-24 3 13 13 0 0 1-12 8 13 13 0 0 1-13-11l0 0c0-16 19-23 25-33 5 10 24 17 24 33 0-1 0-1 0 0z m58 260a13 13 0 0 1-24 4 13 13 0 0 1-24-4s0 0 0 0c0-15 18-22 24-32 5 10 24 17 24 32l0 0z m0-52a13 13 0 0 1-24 4 13 13 0 0 1-24-4s0 0 0 0c0-15 18-22 24-32 5 10 24 17 24 32l0 0z m-58-156a13 13 0 0 1-24 4 13 13 0 0 1-25-4l0 0c0-15 19-22 25-32 5 10 24 17 24 32 0 0 0 0 0 0z m58 260a13 13 0 0 1-24 4 13 13 0 0 1-24-4s0 0 0 0c0-15 18-22 24-32 5 10 24 17 24 32l0 0z m-58-52a13 13 0 0 1-25 4 13 13 0 0 1-12 7 13 13 0 0 1-12-11l0 0c0-15 18-22 24-32 5 10 24 17 24 32 1-1 1 0 1 0z m-369-347c5 10 24 17 24 33a13 13 0 0 1-24 4 13 13 0 0 1-24-3l0 0c0-16 18-23 24-34z m0 53c5 10 24 17 24 33l0 0a13 13 0 0 1-24 3 13 13 0 0 1-24-3l0 0c0-16 18-23 24-33z m0-104c5 10 24 17 24 32l0 0a13 13 0 0 1-24 4 13 13 0 0 1-24-4l0 0c0-15 18-22 24-32z m0 156c5 10 24 17 24 32l0 0a13 13 0 0 1-24 4 13 13 0 0 1-24-4l0 0c0-15 18-22 24-32z m0 104c5 10 24 18 24 33a13 13 0 0 1-24 5 13 13 0 0 1-24-4l0 0c0-16 18-24 24-34z m0 105c5 10 24 17 24 32l0 0a13 13 0 0 1-24 4 13 13 0 0 1-24-4l0 0c0-15 18-22 24-32z m0-417c5 10 24 17 24 32l0 0a13 13 0 0 1-24 4 13 13 0 0 1-24-4l0 0c0-15 18-22 24-32z m0 260c5 10 24 17 24 33l0 0a13 13 0 0 1-24 3 13 13 0 0 1-24-3l0 0c0-16 18-23 24-33z m0-521c5 10 24 17 24 32a13 13 0 0 1-24 5 13 13 0 0 1-24-3l0 0c0-17 18-24 24-34z m46-7a13 13 0 0 1-13-12l0 0a21 21 0 0 1 6-13l18 19a13 13 0 0 1-11 6z m-46-45c5 10 24 17 24 32l0 0a13 13 0 0 1-24 4 13 13 0 0 1-24-4l0 0c0-15 18-22 24-32z m57 730c6 10 24 17 24 32l0 0a13 13 0 0 1-24 4 13 13 0 0 1-11 7 13 13 0 0 1-13-11l0 0c0-15 19-22 24-32z m-57-52c5 10 24 17 24 32l0 0a13 13 0 0 1-24 4 13 13 0 0 1-24-4l0 0c0-16 18-22 24-32z m0-470c5 10 24 17 24 33l0 0a13 13 0 0 1-24 3 13 13 0 0 1-24-3l0 0c0-16 18-23 24-33z m0-104c5 10 24 17 24 33l0 0a13 13 0 0 1-24 3 13 13 0 0 1-24-3l0 0c0-16 18-23 24-33z m0 156c5 10 24 18 24 33l0 0a13 13 0 0 1-24 4 13 13 0 0 1-24-4l0 0c0-16 18-23 24-33z m460 470c5 10 24 17 24 32l0 0a13 13 0 0 1-13 11 13 13 0 0 1-11-7 13 13 0 0 1-25-4l0 0c0-15 20-22 25-32z m0-157c5 10 24 17 24 33l0 0a13 13 0 0 1-13 11 13 13 0 0 1-11-8 13 13 0 0 1-25-3l0 0c0-16 20-23 25-33z m0-52c5 10 24 17 24 32l0 0a13 13 0 0 1-13 12 13 13 0 0 1-11-8 13 13 0 0 1-25-4l0 0c0-15 20-22 25-32z m0 104c5 10 24 18 24 33l0 0a13 13 0 0 1-13 11 13 13 0 0 1-11-7 13 13 0 0 1-25-4l0 0c0-15 20-23 25-33z m0 53c5 10 24 17 24 32l0 0a13 13 0 0 1-13 11 13 13 0 0 1-11-7 13 13 0 0 1-25-4l0 0c0-16 20-22 25-32z m33 32c0-11 10-18 17-25a274 274 0 0 1-7 37 13 13 0 0 1-10-11s0-1 0-1z m-483-718a13 13 0 0 1-11-7 13 13 0 0 1-24-4l0 0c0-10 8-16 15-22q11 17 25 34a14 14 0 0 1-5-1z m483 563l0 0a19 19 0 0 1 4-12c3 8 5 16 6 24a12 12 0 0 1-10-12z m-33 227a58 58 0 0 0 12 13 276 276 0 0 1-22 31h-2a13 13 0 0 1-13-11l0 0c0-16 20-23 25-33z m-472 12a54 54 0 0 0 12-12c5 10 24 17 24 32l0 0a13 13 0 0 1-13 11h0a275 275 0 0 0 28 28c6-8 17-14 21-21 5 10 24 17 24 33l0 0a13 13 0 0 1-13 11l-3 0a281 281 0 0 0 35 21 62 62 0 0 0 14-14c5 10 21 17 24 30l8 6h0c0-16 19-22 24-33 6 10 25 17 25 33 0 0 0 0 0 0a12 12 0 0 1-5 8c8 0 15 2 23 2a12 12 0 0 1-11-9l0 0c0-16 18-23 24-33 6 10 24 17 24 33 0 0 0 0 0 0a12 12 0 0 1-8 10c8 0 15 0 23-2a12 12 0 0 1-5-8l0 0c0-16 19-23 24-33 6 10 24 17 24 33l0 0a284 284 0 0 1-341-160s11 23 18 34z m300 131l0-2 0 2z m-58 6l8 0a13 13 0 0 1-8-7 13 13 0 0 1-10 7z m-57-6l0-2 0 0z m-115-52l0-2 0 0z m454-205a13 13 0 0 1-19-9l0 0c0-12 11-19 18-26 0 6 0 13 0 19s1 11 1 16z m-7-50a13 13 0 0 1-12-11l0 0a31 31 0 0 1 14-22c1 11 3 22 4 33a13 13 0 0 1-6 0z m-505-462c5 10 24 17 24 33l0 0a13 13 0 0 1-24 3 13 13 0 0 1-24-3l0 0c0-16 18-23 24-33z m-264 607a13 13 0 0 1-12 11 13 13 0 0 1-12-7 13 13 0 0 1-24-4l0 0c0-15 19-22 24-32 6 10 24 17 24 32l0 0z m0-104a13 13 0 0 1-12 11 13 13 0 0 1-12-7 13 13 0 0 1-24-4l0 0c0-15 19-22 24-32 6 10 24 17 24 32l0 0z m552-138c5 10 24 17 24 32l0 0a13 13 0 0 1-24 4 13 13 0 0 1-24-4l0 0c-1-15 18-22 24-32z m-552 294a13 13 0 0 1-12 12 13 13 0 0 1-12-8 13 13 0 0 1-24-4l0 0c0-15 19-22 24-32 6 10 24 17 24 32l0 0z m0-260a13 13 0 0 1-12 11 13 13 0 0 1-12-7 13 13 0 0 1-24-4l0 0c0-15 19-22 24-32 6 10 24 17 24 32l0 0z m0-52a13 13 0 0 1-12 11 13 13 0 0 1-12-8 13 13 0 0 1-24-3l0 0c0-16 19-23 24-33 6 10 24 17 24 33l0 0z m0 104a13 13 0 0 1-12 11 13 13 0 0 1-12-8 13 13 0 0 1-24-3l0 0c0-15 19-22 24-33 6 10 24 18 24 33l0 0z m-57 52a13 13 0 0 1-24 4 13 13 0 0 1-24-4s0 0 0 0c0-15 18-22 24-32 5 10 24 17 24 32 0-1 0 0 0 0z m-13-354a13 13 0 0 1-11-7 13 13 0 0 1-24-4s0 0 0 0c0-15 18-22 24-32 5 10 24 17 24 32l0 0a13 13 0 0 1-13 11z m13 198a13 13 0 0 1-24 3 13 13 0 0 1-24-3s0 0 0 0c0-16 18-23 24-33 5 10 24 17 24 33 0-1 0-1 0 0z m0 52a13 13 0 0 1-24 4 13 13 0 0 1-24-4s0 0 0 0c0-15 18-22 24-32 5 10 24 17 24 32 0 0 0 0 0 0z m0-209a13 13 0 0 1-24 4 13 13 0 0 1-24-4s0 0 0 0c0-15 18-22 24-32 5 10 24 17 24 32 0-1 0 0 0 0z m0 261a13 13 0 0 1-24 4 13 13 0 0 1-24-4s0 0 0 0c0-15 19-22 24-32 5 10 24 17 24 32 0-1 0 0 0 0z m57-157a13 13 0 0 1-24 4 13 13 0 0 1-24-4l0 0c0-15 19-22 24-32 6 10 24 17 24 32l0 0z m-57 0a13 13 0 0 1-24 4 13 13 0 0 1-24-4s0 0 0 0c0-15 18-22 24-32 5 10 24 17 24 32 0 0 0 0 0 0z m0-52a13 13 0 0 1-24 4 13 13 0 0 1-24-4s0 0 0 0c0-15 18-22 24-32 5 10 24 17 24 32 0-1 0 0 0 0z m57 470a13 13 0 0 1-12 11 13 13 0 0 1-12-8 13 13 0 0 1-24-3l0 0c0-15 19-23 24-33 6 10 24 17 24 33l0 0z m230-261a13 13 0 0 1-24 3 13 13 0 0 1-24-3l0 0c0-15 19-22 24-33 6 10 24 18 24 33l0 0z m0 52a13 13 0 0 1-24 4 13 13 0 0 1-24-4l0 0c0-15 19-22 24-32 6 10 24 17 24 32l0 0z m0 52a13 13 0 0 1-24 4 13 13 0 0 1-24-4l0 0c0-15 19-22 24-32 6 10 24 17 24 32l0 0z m0-156a13 13 0 0 1-24 4 13 13 0 0 1-24-4l0 0c0-15 19-22 24-32 6 10 24 17 24 32l0 0z m0-157a13 13 0 0 1-24 4 13 13 0 0 1-24-4l0 0c0-15 19-22 24-32 6 10 24 17 24 32l0 0z m0 105a13 13 0 0 1-24 3 13 13 0 0 1-24-3l0 0c0-16 19-23 24-33 6 10 24 17 24 33l0 0z m0-53a13 13 0 0 1-24 4 13 13 0 0 1-24-4l0 0c0-15 19-22 24-32 6 10 24 17 24 32l0 0z m-230-156a13 13 0 0 1-12 11 13 13 0 0 1-12-7 13 13 0 0 1-24-4l0 0c0-15 19-22 24-32 6 10 24 17 24 32l0 0z m0 104a13 13 0 0 1-24 4 13 13 0 0 1-24-4l0 0c0-15 19-22 24-32 6 10 24 17 24 32l0 0z m230 365a13 13 0 0 1-24 4 13 13 0 0 1-24-4l0 0c0-15 19-22 24-32 6 10 24 17 24 32l0 0z m-230-417a13 13 0 0 1-12 11 13 13 0 0 1-12-7 13 13 0 0 1-24-4l0 0c0-15 19-22 24-32 6 10 24 17 24 32l0 0z m-12-93a13 13 0 0 1-12-8 13 13 0 0 1-24-3l0 0c0-15 19-22 24-33 6 10 24 18 24 33l0 0a13 13 0 0 1-12 11z m66-129a19 19 0 0 1 4 12l0 0a13 13 0 0 1-13 11 13 13 0 0 1-11-7l0 0a13 13 0 0 1-7 6l-31 28a21 21 0 0 1 5 13l0 0a13 13 0 0 1-24 4 13 13 0 0 1-11 7l-27 26a21 21 0 0 1 6 14l0 0a13 13 0 0 1-24 4 13 13 0 0 1-12 7l-27 27a20 20 0 0 1 5 13l0 0a13 13 0 0 1-24 4l0 0a12 12 0 0 1-4 5q-16 16-30 32a18 18 0 0 1 2 9l0 0a13 13 0 0 1-19 9q-9 11-17 22a48 48 0 0 0 11-12c6 10 24 17 24 32l0 0a13 13 0 0 1-24 4 13 13 0 0 1-24-4l0 0a16 16 0 0 1 0-4c-8 12-16 23-23 35a30 30 0 0 1 13 21l0 0a13 13 0 0 1-25 12 13 13 0 0 1-8 7 437 437 0 0 0-32 78 21 21 0 0 1 7 14l0 0a13 13 0 0 1-13 12h0c0 5-2 10-3 16 7 6 16 13 16 23l0 0a13 13 0 0 1-20 8c0 5 0 10 0 15 7 8 21 15 21 27l0 0a13 13 0 0 1-12 11 13 13 0 0 1-12 1c0 5 0 9 0 14s0 2 0 3c8 7 21 15 21 27l0 0a13 13 0 0 1-11 12h0a286 286 0 0 0 9 28 20 20 0 0 1 3 8 278 278 0 0 0 19 37 74 74 0 0 0 15-13c5 10 24 17 24 32l0 0a13 13 0 0 1-13 11 13 13 0 0 1-6-1 281 281 0 0 0 30 33c6-9 18-15 22-23 5 10 24 17 24 33l0 0a13 13 0 0 1-24 3 12 12 0 0 1-2 4 284 284 0 0 0 44 28 75 75 0 0 0 15-15c6 9 23 16 24 30l10 3h0s0 0 0 0c0-15 19-22 24-33 5 10 24 18 24 33l0 0a12 12 0 0 1-5 8c8 0 16 2 24 2a12 12 0 0 1-10-10l0 0c0-15 19-22 24-33 6 10 24 18 24 33l0 0a13 13 0 0 1-8 10c7 0 15 0 22-2a13 13 0 0 1-4-8l0 0c0-16 19-23 24-33 5 10 23 17 24 32-8 3-16 4-24 6l0 0 0 0a286 286 0 0 1-61 6 279 279 0 0 1-282-280c0-239 208-389 373-536z m-81 807l12 0a13 13 0 0 1-9-7 13 13 0 0 1-9 7z m-52-5l-2-3 0 2z m309-580a13 13 0 0 1-24 4 13 13 0 0 1-24-4l0 0c0-15 19-22 24-32 6 10 24 17 24 32l0 0z m-402 469a13 13 0 0 1-24 4 13 13 0 0 1-24-4l0 0c0-15 19-22 24-32 5 10 24 17 24 32l0 0z m0-104a13 13 0 0 1-24 4 13 13 0 0 1-24-4l0 0c0-15 19-22 24-32 5 10 24 17 24 32l0 0z m0 52a13 13 0 0 1-24 4 13 13 0 0 1-24-4l0 0c0-15 19-22 24-32 5 10 24 17 24 32l0 0z m-12-301a13 13 0 0 1-12-8 13 13 0 0 1-12 8 13 13 0 0 1-12-12l0 0c0-15 19-22 24-32 5 10 24 17 24 32l0 0a13 13 0 0 1-12 12z m12 145a13 13 0 0 1-24 4 13 13 0 0 1-24-4l0 0c0-15 19-22 24-32 5 10 24 17 24 32a11 11 0 0 1 0 0z m0-52a13 13 0 0 1-24 4 13 13 0 0 1-24-4l0 0c0-15 19-22 24-32 5 10 24 17 24 32a11 11 0 0 1 0 0z m0 104a13 13 0 0 1-24 4 13 13 0 0 1-24-4l0 0c0-15 19-22 24-32 5 10 24 17 24 32l0 0z m-70-145a13 13 0 0 1-11-8 13 13 0 0 1-25-3l0 0c0-16 19-23 25-33 5 10 24 17 24 33l0 0a13 13 0 0 1-13 11z m13 41a13 13 0 0 1-24 3 13 13 0 0 1-25-3l0 0c0-16 19-23 25-33 5 10 24 17 24 33a8 8 0 0 1 0 0z m395-538a22 22 0 0 1 7 15l0 0a13 13 0 0 1-24 4 13 13 0 0 1-9 7l-5 5q17-17 32-34z m-395 590a13 13 0 0 1-24 4 13 13 0 0 1-25-4l0 0c0-15 19-22 25-32 5 10 24 17 24 32a9 9 0 0 1 0 0z m826-302a13 13 0 0 1-13-11l0 0a19 19 0 0 1 5-12l19 18a13 13 0 0 1-11 5z m-826 458a13 13 0 0 1-24 4 13 13 0 0 1-25-4l0 0c0-15 19-22 25-32 5 10 24 17 24 32l0 0z m0-104a13 13 0 0 1-24 4 13 13 0 0 1-25-4l0 0c0-15 19-22 25-32 5 10 24 17 24 32l0 0z m0 52a13 13 0 0 1-24 4 13 13 0 0 1-25-4s0 0 0 0c0-15 19-22 25-32 5 10 24 17 24 32l0 0z m114-156a13 13 0 0 1-24 4 13 13 0 0 1-24-4l0 0c0-15 19-22 24-32 6 10 24 17 24 32l0 0z m-12-198a13 13 0 0 1-12-7 13 13 0 0 1-24-4l0 0c0-15 19-22 24-32 6 10 24 17 24 32l0 0a13 13 0 0 1-12 11z m12 41a13 13 0 0 1-24 4 13 13 0 0 1-24-4l0 0c0-15 19-22 24-32 6 10 24 17 24 32l0 0z m0 52a13 13 0 0 1-24 4 13 13 0 0 1-24-4l0 0c0-15 19-22 24-32 6 10 24 17 24 32l0 0z m0 53a13 13 0 0 1-24 3 13 13 0 0 1-24-3l0 0c0-16 19-23 24-33 6 10 24 17 24 33l0 0z m58 260a13 13 0 0 1-24 4 13 13 0 0 1-24-4s0 0 0 0c0-15 18-22 24-32 5 10 24 17 24 32 0-1 0 0 0 0z m0 105a13 13 0 0 1-24 3 13 13 0 0 1-24-3s0 0 0 0c0-15 18-23 24-33 5 10 24 17 24 33 0-1 0-1 0 0z m-115-365a13 13 0 0 1-24 3 13 13 0 0 1-12 8 13 13 0 0 1-12-11l0 0c0-16 19-23 24-33 5 10 24 17 24 33l0 0z m115 312a13 13 0 0 1-24 4 13 13 0 0 1-24-4s0 0 0 0c0-15 18-22 24-32 5 10 24 17 24 32 0 0 0 0 0 0z m-58 0a13 13 0 0 1-24 4 13 13 0 0 1-24-4l0 0c0-15 19-22 24-32 6 10 24 17 24 32l0 0z m0 53a13 13 0 0 1-24 3 13 13 0 0 1-24-3l0 0c0-15 19-23 24-33 6 9 24 16 24 31a9 9 0 0 1 0 2z m0-105a13 13 0 0 1-24 4 13 13 0 0 1-24-4l0 0c0-15 19-22 24-32 6 9 24 16 24 31a9 9 0 0 1 0 1z m0-52a13 13 0 0 1-24 4 13 13 0 0 1-24-4l0 0c0-15 19-22 24-32 6 9 24 15 24 31a9 9 0 0 1 0 1z m58 0a13 13 0 0 1-24 4 13 13 0 0 1-24-4s0 0 0 0c0-15 18-22 24-32 5 10 24 17 24 32 0-1 0 0 0 0z m-58-104a13 13 0 0 1-23 4 13 13 0 0 1-25-4l0 0c0-15 19-22 25-32 5 10 24 17 24 32a9 9 0 0 1-1 0z m0 52a13 13 0 0 1-24 4 13 13 0 0 1-24-4l0 0c0-15 19-22 24-32 6 10 24 17 24 32l0 0z m115 52a13 13 0 0 1-12 11 13 13 0 0 1-12-7 13 13 0 0 1-24-4l0 0c0-15 19-22 24-32 6 10 24 17 24 32l0 0z m173-469a13 13 0 0 1-24 4 13 13 0 0 1-24-4s0 0 0 0c0-15 18-22 24-32 5 10 24 17 24 32l0 0z m-13-93a13 13 0 0 1-11-8 13 13 0 0 1-24-3s0 0 0 0c0-16 18-23 24-33 5 10 24 17 24 33l0 0a13 13 0 0 1-13 11z m13 666a13 13 0 0 1-13 12 13 13 0 0 1-11-8 13 13 0 0 1-24-4s0 0 0 0c0-15 18-22 24-32 5 10 24 17 24 32l0 0z m0-625a13 13 0 0 1-24 3 13 13 0 0 1-24-3s0 0 0 0c0-15 18-22 24-33 5 10 24 18 24 33l0 0z m-115 573a13 13 0 0 1-24 4 13 13 0 0 1-24-4l0 0c0-15 19-22 24-32 5 10 24 17 24 32l0 0z m115-417a13 13 0 0 1-13 11 13 13 0 0 1-11-7 13 13 0 0 1-24-4s0 0 0 0c0-15 18-22 24-32 5 10 24 17 24 32l0 0z m-115 469a13 13 0 0 1-24 4 13 13 0 0 1-24-4l0 0c0-15 19-22 24-32 5 10 24 17 24 32l0 0z m0 53a13 13 0 0 1-24 3 13 13 0 0 1-24-3l0 0c0-15 19-23 24-33 5 10 24 17 24 33l0 0z m115-157a13 13 0 0 1-13 11 13 13 0 0 1-11-8 13 13 0 0 1-24-3s0 0 0 0c0-16 18-23 24-33 5 10 24 17 24 33a9 9 0 0 1 0 0z m-115 0a13 13 0 0 1-24 4 13 13 0 0 1-24-4l0 0c0-15 19-22 24-32 5 10 24 17 24 32l0 0z m115-313a13 13 0 0 1-24 4 13 13 0 0 1-24-4s0 0 0 0c0-15 18-22 24-32 5 10 24 17 24 32l0 0z m0 209a13 13 0 0 1-13 11 13 13 0 0 1-11-8 13 13 0 0 1-24-3s0 0 0 0c0-15 18-22 24-33 5 10 24 18 24 33l0 0z m0 156a13 13 0 0 1-13 11 13 13 0 0 1-11-7 13 13 0 0 1-24-4s0 0 0 0c0-15 18-22 24-32 5 10 24 17 24 32l0 0z m0-104a13 13 0 0 1-13 11 13 13 0 0 1-11-7 13 13 0 0 1-24-4s0 0 0 0c0-15 18-22 24-32 5 10 24 17 24 32l0 0z m0-209a13 13 0 0 1-24 4 13 13 0 0 1-24-4s0 0 0 0c0-15 18-22 24-32 5 10 24 17 24 32l0 0z m0 53a13 13 0 0 1-13 11 13 13 0 0 1-11-8 13 13 0 0 1-24-3s0 0 0 0c0-16 18-23 24-33 5 10 24 17 24 33l0 0z m0 52a13 13 0 0 1-13 11 13 13 0 0 1-11-7 13 13 0 0 1-24-4s0 0 0 0c0-15 18-22 24-32 5 10 24 17 24 32l0 0z m0-261a13 13 0 0 1-13 11 13 13 0 0 1-11-7 13 13 0 0 1-24-4s0 0 0 0c0-15 18-22 24-32 5 10 24 17 24 32l0 0z m379-34c5 10 24 18 24 33l0 0a13 13 0 0 1-24 4 13 13 0 0 1-24-4l0 0c-1-16 18-23 24-33z m-494-18a13 13 0 0 1-24 4 13 13 0 0 1-12 7 13 13 0 0 1-12-11l0 0c0-15 19-22 24-32 5 10 24 17 24 32a9 9 0 0 1 0 0z m0 417a13 13 0 0 1-24 4 13 13 0 0 1-24-4l0 0c0-15 19-22 24-32 5 10 24 17 24 32l0 0z m494-346c5 10 24 17 24 32l0 0a13 13 0 0 1-24 4 13 13 0 0 1-24-4l0 0c-1-15 18-22 24-32z m0 156c5 10 24 17 24 33l0 0a13 13 0 0 1-24 3 13 13 0 0 1-24-3l0 0c-1-16 18-23 24-33z m0-104c5 10 24 17 24 32l0 0a13 13 0 0 1-24 4 13 13 0 0 1-24-4l0 0c-1-15 18-22 24-32z m0 51c5 10 24 17 24 33l0 0a13 13 0 0 1-24 3 13 13 0 0 1-12 8 13 13 0 0 1-12-11l0 0c-1-15 18-22 24-33z m-322-436l0 0a13 13 0 0 1-24 4 13 13 0 0 1-11 7 12 12 0 0 1-7-2l-3 4a490 490 0 0 0 31-42l-2 4c7 8 16 14 16 25z m-172 523a13 13 0 0 1-24 3 13 13 0 0 1-24-3l0 0c0-16 19-23 24-33 5 10 24 17 24 33l0 0z m-13-302a13 13 0 0 1-11-8 13 13 0 0 1-24-3l0 0c0-15 19-22 24-33 5 10 24 18 24 33l0 0a13 13 0 0 1-13 11z m13 249a13 13 0 0 1-24 4 13 13 0 0 1-12 8 13 13 0 0 1-12-11l0 0c0-15 19-23 24-33 5 10 24 17 24 33a9 9 0 0 1 0-1z m0 157a13 13 0 0 1-24 3 13 13 0 0 1-24-3l0 0c0-15 19-22 24-33 5 10 24 18 24 33l0 0z m0-52a13 13 0 0 1-24 4 13 13 0 0 1-24-4l0 0c0-15 19-22 24-32 5 10 24 17 24 32l0 0z m0-261a13 13 0 0 1-24 4 13 13 0 0 1-24-4l0 0c0-15 19-22 24-32 5 10 24 17 24 32l0 0z m0 52a13 13 0 0 1-24 4 13 13 0 0 1-24-4l0 0c0-15 19-22 24-32 5 10 24 17 24 32l0 0z m0 52a13 13 0 0 1-24 4 13 13 0 0 1-24-4l0 0c0-15 19-22 24-32 5 10 24 17 24 32l0 0z m57 365a13 13 0 0 1-24 4 13 13 0 0 1-24-4l0 0c0-15 19-22 24-32 6 10 24 17 24 32 0-1 0 0 0 0z m-24 123a58 58 0 0 0 13 13 281 281 0 0 1-36 15c3-12 19-19 23-28z m24-175a13 13 0 0 1-24 4 13 13 0 0 1-24-4l0 0c0-15 19-22 24-32 6 10 24 17 24 32 0-1 0 0 0 0z m0 104a13 13 0 0 1-24 4 13 13 0 0 1-24-4l0 0c0-15 19-22 24-32 6 10 24 17 24 32 0 0 0 0 0 0z m0 53a13 13 0 0 1-24 3 13 13 0 0 1-24-3l0 0c0-15 19-23 24-33 6 10 24 17 24 33 0-1 0-1 0 0z m115-574a13 13 0 0 1-24 4 13 13 0 0 1-24-4l0 0c0-15 19-22 24-32 6 10 24 17 24 32l0 0z m-119-222a19 19 0 0 1 4 12l0 0a13 13 0 0 1-23 5l-7 6 29-27z m-20 32c6 10 24 17 24 33l0 0a13 13 0 0 1-24 3 13 13 0 0 1-24-3l0 0c0-16 19-23 24-33z m139 34a13 13 0 0 1-24 4 13 13 0 0 1-24-4l0 0c0-15 19-22 24-32 6 10 24 17 24 32l0 0z m0 52a13 13 0 0 1-24 3 13 13 0 0 1-24-3l0 0c0-15 19-22 24-33 6 10 24 18 24 33l0 0z m-81-138c5 10 24 17 24 32l0 0a13 13 0 0 1-13 11 13 13 0 0 1-11-7 13 13 0 0 1-24-4s0 0 0 0c0-15 19-22 24-32z m81 33a13 13 0 0 1-24 4 13 13 0 0 1-24-4l0 0c0-15 19-22 24-32 6 10 24 17 24 32l0 0z m-48 729c0-15 19-22 24-32a45 45 0 0 0 11 11 281 281 0 0 1-24 33 13 13 0 0 1-11-11 9 9 0 0 1 0-1z m48-781a13 13 0 0 1-24 4 13 13 0 0 1-24-4l0 0c0-15 19-22 24-32 6 10 24 17 24 32l0 0z m0 209a13 13 0 0 1-24 4 13 13 0 0 1-24-4l0 0c0-15 19-22 24-32 6 10 24 17 24 32l0 0z m-115 104a13 13 0 0 1-24 4 13 13 0 0 1-24-4l0 0c0-15 19-22 24-32 6 10 24 17 24 32 0-1 0 0 0 0z m0 157a13 13 0 0 1-24 3 13 13 0 0 1-24-3l0 0c0-16 19-23 24-33 6 10 24 17 24 33 0-1 0-1 0 0z m0-105a13 13 0 0 1-24 4 13 13 0 0 1-24-4l0 0c0-15 19-22 24-32 6 10 24 17 24 32 0-1 0 0 0 0z m0 52a13 13 0 0 1-24 4 13 13 0 0 1-24-4l0 0c0-15 19-22 24-32 6 10 24 17 24 32 0 0 0 0 0 0z m0-156a13 13 0 0 1-24 4 13 13 0 0 1-24-4l0 0c0-15 19-22 24-32 6 10 24 17 24 32 0-1 0 0 0 0z m0 365a13 13 0 0 1-24 4 13 13 0 0 1-24-4l0 0c0-15 19-22 24-32 6 10 24 17 24 32 0-1 0 0 0 0z m-12-458a13 13 0 0 1-12-8 13 13 0 0 1-24-3l0 0c0-15 19-22 24-33 6 10 24 18 24 33l0 0a13 13 0 0 1-12 11z m12 41a13 13 0 0 1-24 4 13 13 0 0 1-24-4l0 0c0-15 19-22 24-32 6 10 24 17 24 32 0-1 0 0 0 0z m0 365a13 13 0 0 1-24 3 13 13 0 0 1-24-3l0 0c0-15 19-22 24-33 6 10 24 18 24 33 0-1 0 0 0 0z m0-52a13 13 0 0 1-24 4 13 13 0 0 1-24-4l0 0c0-15 19-22 24-32 6 10 24 17 24 32 0 0 0 0 0 0z m10 313s0 0 0 0c0-15 18-23 24-33 3 7 13 12 19 20a283 283 0 0 1-31 25 13 13 0 0 1-12-12z" horiz-adv-x="1083" />

<glyph glyph-name="yipp_back" unicode="&#xe827;" d="M797 756l-94 94-500-500 500-500 94 94-405 406z" horiz-adv-x="1000" />

<glyph glyph-name="yipp_down" unicode="&#xe828;" d="M1000 553l-500-500-500 500 94 94 406-405 406 405z" horiz-adv-x="1000" />

<glyph glyph-name="yipp_forward" unicode="&#xe829;" d="M796 350l-498-497-93 94 403 403-403 403 93 94z" horiz-adv-x="1000" />

<glyph glyph-name="yipp_up" unicode="&#xe82a;" d="M1000 147l-95-94-405 406-406-406-94 94 500 500z" horiz-adv-x="999" />
</font>
</defs>
</svg>
